<svg width="222" height="106" viewBox="0 0 222 106" fill="none" xmlns="http://www.w3.org/2000/svg">
<path d="M109.491 0.5C137.456 0.5 165.309 0.511598 186.17 3.25391C196.605 4.62561 205.24 6.67463 211.254 9.71875C217.26 12.759 220.549 16.731 220.549 21.9385C220.549 23.5091 219.73 26.0046 218.103 29.2256C216.486 32.4236 214.109 36.2687 211.073 40.5137C205.003 49.0025 196.322 59.0599 185.896 68.6963C165.023 87.9875 137.252 105.5 109.491 105.5C81.7327 105.5 54.48 87.9903 34.125 68.7012C23.9571 59.0656 15.5342 49.0079 9.65723 40.5195C6.7185 36.2749 4.42153 32.4296 2.86133 29.2314C1.29044 26.0114 0.5 23.5135 0.5 21.9385C0.500094 17.4122 3.63799 13.768 9.4707 10.8418C15.2965 7.9191 23.6791 5.78756 33.8555 4.25C54.1986 1.17633 81.537 0.500004 109.491 0.5Z" fill="#93786F" stroke="black"/>
</svg>
