<svg width="175" height="76" viewBox="0 0 175 76" fill="none" xmlns="http://www.w3.org/2000/svg">
<path d="M91.5332 23.5557C90.5224 22.6493 89.5222 22.3102 88.3828 22.6035C87.1896 22.9108 85.75 23.9322 83.957 26.0137C81.4744 28.8958 81.3669 33.3316 83.1504 38.5322C84.9264 43.711 88.5365 49.509 93.2402 54.9443C97.9413 60.3765 103.714 65.4214 109.789 69.1055C115.869 72.7927 122.217 75.0946 128.078 75.0947C139.876 75.0947 153.572 67.8992 162.946 59.0391C167.629 54.6136 171.191 49.8102 172.899 45.3398C174.606 40.8747 174.439 36.8229 171.818 33.751L171.819 33.75C169.928 31.5367 168.364 30.266 167.026 29.6807C165.72 29.1092 164.619 29.1851 163.576 29.7129C162.499 30.258 161.455 31.3007 160.341 32.7305C159.229 34.1563 158.092 35.9079 156.803 37.832C151.664 45.5023 144.322 55.5947 128.078 55.5947V55.5938C110.777 55.5981 103.15 43.7962 98.0762 34.3193C96.7995 31.935 95.6995 29.7274 94.6309 27.8447C93.5621 25.9617 92.5658 24.4816 91.5332 23.5557Z" fill="#93786F" stroke="black"/>
<path d="M82.9824 23.3682C83.9932 22.4618 84.9934 22.1227 86.1328 22.416C87.326 22.7233 88.7656 23.7447 90.5586 25.8262C93.0412 28.7083 93.1487 33.1441 91.3652 38.3447C89.5892 43.5235 85.9792 49.3215 81.2754 54.7568C76.5744 60.189 70.8017 65.2339 64.7266 68.918C58.6461 72.6052 52.2984 74.9071 46.4375 74.9072C34.6396 74.9072 20.9436 67.7117 11.5693 58.8516C6.88712 54.4261 3.32451 49.6227 1.61621 45.1523C-0.0899855 40.6872 0.0761587 36.6354 2.69727 33.5635L2.69629 33.5625C4.58738 31.3492 6.1517 30.0785 7.48926 29.4932C8.79528 28.9217 9.89686 28.9976 10.9395 29.5254C12.0161 30.0705 13.0603 31.1132 14.1748 32.543C15.2862 33.9688 16.4237 35.7204 17.7129 37.6445C22.852 45.3148 30.1935 55.4072 46.4375 55.4072V55.4062C63.7381 55.4106 71.3653 43.6087 76.4395 34.1318C77.7161 31.7475 78.8162 29.5399 79.8848 27.6572C80.9535 25.7742 81.9498 24.2941 82.9824 23.3682Z" fill="#93786F" stroke="black"/>
<path d="M87.5 0.5C94.2984 0.5 100.936 0.515684 105.883 2.56543C108.336 3.58191 110.352 5.0917 111.761 7.33887C113.172 9.59034 114 12.6254 114 16.7354C114 21.6873 110.778 26.2444 105.796 29.5889C100.822 32.9276 94.1692 35 87.5 35C80.8316 35 74.3059 32.9278 69.459 29.5918C64.6062 26.2516 61.5 21.6952 61.5 16.7354C61.5001 13.1421 62.2932 10.3591 63.6602 8.19727C65.0272 6.03559 66.9911 4.45916 69.3906 3.31641C74.2136 1.01961 80.7375 0.5 87.5 0.5Z" fill="#93786F" stroke="black"/>
</svg>
