<svg width="94" height="53" viewBox="0 0 94 53" fill="none" xmlns="http://www.w3.org/2000/svg">
<path d="M83.574 50.5651C84.62 51.4307 85.6328 51.7298 86.7597 51.3915C87.9397 51.0371 89.3377 49.9593 91.0466 47.8083C93.4129 44.8299 93.3441 40.3933 91.3556 35.2676C89.3754 30.1634 85.538 24.5133 80.6221 19.269C75.7091 14.0277 69.7408 9.21597 63.5242 5.77603C57.3021 2.3331 50.868 0.284998 45.0117 0.517585C33.2232 0.985971 19.8236 8.71952 10.8085 17.9449C6.30565 22.5528 2.93655 27.4938 1.40707 32.0285C-0.120509 36.5578 0.206365 40.5998 2.94736 43.5653L2.94643 43.5663C4.9239 45.7028 6.53743 46.9103 7.89717 47.4421C9.22486 47.9613 10.3225 47.8417 11.3434 47.2729C12.3976 46.6856 13.3995 45.6022 14.4564 44.1293C15.5103 42.6605 16.5774 40.8651 17.7891 38.8913C22.6197 31.0231 29.5547 20.6471 45.7859 20.0022L45.7859 20.0032C63.0728 19.312 71.1625 30.8018 76.6089 40.0697C77.9791 42.4015 79.166 44.5636 80.3085 46.4024C81.4512 48.2415 82.5055 49.6809 83.574 50.5651Z" fill="#93786F" stroke="black"/>
</svg>
