<svg width="94" height="52" viewBox="0 0 94 52" fill="none" xmlns="http://www.w3.org/2000/svg">
<path d="M9.58643 49.7637C8.5223 50.6069 7.50338 50.8844 6.38392 50.5223C5.21167 50.143 3.8369 49.0358 2.17391 46.8491C-0.128706 43.8212 0.0340102 39.3871 2.13071 34.3047C4.21864 29.2436 8.17488 23.6761 13.2008 18.5371C18.2237 13.4011 24.2927 8.7169 30.5808 5.40946C36.8744 2.09915 43.3504 0.187846 49.2005 0.544476C60.9765 1.26255 74.2092 9.2783 83.0268 18.6926C87.431 23.3949 90.6946 28.4062 92.1277 32.9722C93.5589 37.5329 93.1465 41.5671 90.3433 44.4738L90.3442 44.4749C88.3219 46.569 86.6831 47.7421 85.3124 48.2449C83.974 48.7358 82.8791 48.593 81.8706 48.0028C80.8291 47.3932 79.8503 46.2888 78.8249 44.7939C77.8023 43.303 76.7735 41.4854 75.6039 39.4864C70.9412 31.5176 64.2275 20.997 48.0137 20.0083L48.0136 20.0093C30.7453 18.952 22.4139 30.2677 16.7724 39.4182C15.353 41.7205 14.1206 43.8569 12.9394 45.6711C11.758 47.4856 10.6735 48.9023 9.58643 49.7637Z" fill="#93786F" stroke="black"/>
</svg>
